<?xml version="1.0" standalone="no"?>
<!DOCTYPE svg PUBLIC "-//W3C//DTD SVG 20010904//EN"
 "http://www.w3.org/TR/2001/REC-SVG-20010904/DTD/svg10.dtd">
<svg version="1.0" xmlns="http://www.w3.org/2000/svg"
 width="500.000000pt" height="500.000000pt" viewBox="0 0 500.000000 500.000000"
 preserveAspectRatio="xMidYMid meet">

<g transform="translate(0.000000,500.000000) scale(0.100000,-0.100000)"
fill="#000000" stroke="none">
<path d="M3233 3283 c-18 -7 -16 -52 3 -60 23 -9 51 23 38 44 -12 19 -23 24
-41 16z"/>
<path d="M830 3273 c-8 -3 -39 -14 -68 -25 -68 -25 -143 -85 -187 -151 -145
-214 -69 -500 163 -615 74 -36 79 -37 187 -37 104 0 114 2 177 33 213 104 302
357 199 567 -41 83 -138 175 -218 206 -58 22 -219 36 -253 22z m138 -115 c5
-7 12 -24 14 -38 2 -20 11 -26 45 -33 59 -11 70 -28 45 -69 -10 -18 -25 -31
-33 -30 -114 28 -169 22 -169 -17 0 -23 27 -39 108 -66 150 -49 175 -191 45
-255 -46 -22 -52 -29 -55 -60 -3 -32 -6 -35 -36 -38 -40 -4 -62 12 -62 44 0
18 -7 25 -27 30 -98 21 -111 32 -93 80 15 39 27 44 66 28 50 -21 137 -18 158
5 9 10 14 25 11 33 -6 15 -20 22 -132 68 -67 28 -94 58 -100 112 -6 58 21 99
81 124 41 17 46 22 46 51 0 17 6 34 13 36 24 10 65 7 75 -5z"/>
<path d="M3820 3076 l0 -206 25 0 25 0 -2 203 c-3 201 -3 202 -25 205 l-23 3
0 -205z"/>
<path d="M2288 3250 c-85 -26 -130 -84 -136 -175 -8 -121 69 -205 188 -205 61
0 119 27 149 69 12 16 21 32 21 35 0 13 -58 5 -64 -9 -9 -24 -68 -55 -106 -55
-81 0 -140 64 -140 153 0 93 50 147 136 147 48 0 59 -4 93 -35 37 -34 81 -47
81 -24 0 22 -76 87 -115 98 -45 12 -69 13 -107 1z"/>
<path d="M3330 3210 c0 -33 -3 -40 -20 -40 -13 0 -20 -7 -20 -20 0 -13 7 -20
20 -20 19 0 20 -7 20 -105 0 -99 2 -107 25 -130 32 -33 105 -36 105 -5 0 15
-7 20 -28 20 -46 0 -52 15 -52 122 l0 98 40 0 c33 0 40 3 40 20 0 17 -7 20
-40 20 l-40 0 0 40 c0 36 -2 40 -25 40 -22 0 -25 -4 -25 -40z"/>
<path d="M2642 3170 c-98 -23 -139 -161 -74 -249 43 -58 138 -70 191 -25 l31
26 0 -26 c0 -21 5 -26 25 -26 l25 0 0 150 0 150 -25 0 c-20 0 -25 -5 -25 -26
l0 -26 -31 26 c-17 14 -37 26 -44 26 -7 0 -19 2 -27 4 -7 2 -28 0 -46 -4z m99
-50 c10 -6 26 -24 34 -40 41 -79 -9 -170 -93 -170 -91 0 -132 134 -60 195 32
27 84 33 119 15z"/>
<path d="M3007 3165 c-20 -7 -44 -18 -52 -25 -13 -10 -15 -9 -15 9 0 16 -6 21
-25 21 l-25 0 0 -220 0 -220 25 0 c25 0 25 0 25 98 0 53 4 92 8 86 31 -45 123
-58 178 -25 85 52 84 215 -1 262 -45 25 -76 29 -118 14z m104 -64 c34 -34 39
-92 14 -141 -31 -59 -107 -69 -156 -21 -25 25 -29 37 -29 81 0 44 4 56 29 81
23 23 38 29 71 29 33 0 48 -6 71 -29z"/>
<path d="M3572 3170 c-98 -23 -139 -161 -74 -249 43 -58 138 -70 191 -25 l31
26 0 -26 c0 -21 5 -26 25 -26 l25 0 0 150 0 150 -25 0 c-20 0 -25 -5 -25 -26
l0 -26 -31 26 c-17 14 -37 26 -44 26 -7 0 -19 2 -27 4 -7 2 -28 0 -46 -4z m99
-50 c10 -6 26 -24 34 -40 41 -79 -9 -170 -93 -170 -91 0 -132 134 -60 195 32
27 84 33 119 15z"/>
<path d="M3220 3020 l0 -150 25 0 25 0 0 150 0 150 -25 0 -25 0 0 -150z"/>
<path d="M1397 3062 c-26 -26 -47 -55 -47 -63 0 -9 27 -39 60 -68 49 -43 61
-49 66 -36 4 11 -5 28 -27 51 l-33 34 108 0 c115 0 155 -12 178 -53 8 -14 15
-76 18 -167 4 -128 7 -145 23 -148 15 -3 17 9 17 138 0 162 -9 193 -66 236
-35 27 -44 29 -156 34 l-119 5 30 29 c17 17 31 36 31 43 0 27 -37 11 -83 -35z"/>
<path d="M2643 2723 c-18 -7 -16 -52 3 -60 23 -9 51 23 38 44 -12 19 -23 24
-41 16z"/>
<path d="M2970 2638 l0 -81 -23 21 c-75 70 -200 31 -226 -71 -18 -73 13 -155
70 -184 43 -23 114 -16 148 13 l31 26 0 -26 c0 -21 5 -26 25 -26 l25 0 0 205
0 205 -25 0 c-25 0 -25 -1 -25 -82z m-49 -78 c10 -6 26 -24 34 -40 41 -79 -9
-170 -93 -170 -91 0 -132 134 -60 195 32 27 84 33 119 15z"/>
<path d="M2170 2500 l0 -192 101 4 c99 3 101 3 130 36 20 22 29 43 29 66 0 37
-33 86 -57 86 -10 0 -5 10 16 29 40 37 42 87 7 128 -23 27 -29 28 -125 31
l-101 4 0 -192z m182 133 c22 -20 23 -61 1 -85 -12 -14 -31 -18 -80 -18 l-63
0 0 60 0 60 62 0 c43 0 67 -5 80 -17z m8 -168 c12 -11 20 -31 20 -51 0 -47
-29 -64 -107 -64 l-63 0 0 63 c0 35 3 67 8 71 14 15 120 1 142 -19z"/>
<path d="M2576 2610 c-15 -5 -37 -17 -47 -26 -18 -16 -19 -16 -19 4 0 15 -6
22 -20 22 -19 0 -20 -7 -20 -150 0 -140 1 -150 19 -150 17 0 19 10 23 104 4
116 15 139 69 150 23 4 29 11 29 31 0 14 -1 25 -2 24 -2 0 -16 -5 -32 -9z"/>
<path d="M3147 2605 c-48 -16 -61 -28 -81 -69 -33 -70 -9 -170 49 -206 42 -26
110 -26 153 0 l32 20 0 -44 c0 -51 -27 -91 -66 -99 -40 -7 -92 11 -110 38 -19
30 -54 34 -54 6 0 -41 81 -91 145 -91 11 0 39 9 62 19 67 31 73 52 73 256 l0
175 -25 0 c-18 0 -25 -5 -25 -20 0 -20 0 -20 -27 -1 -38 26 -81 32 -126 16z
m124 -64 c25 -25 29 -37 29 -81 0 -44 -4 -56 -29 -81 -88 -87 -215 27 -156
141 19 37 41 49 88 50 29 0 45 -7 68 -29z"/>
<path d="M3495 2611 c-48 -12 -74 -33 -95 -77 -33 -67 -21 -140 30 -189 26
-24 40 -30 94 -33 59 -4 65 -2 99 28 21 18 37 38 37 46 0 22 -37 16 -64 -11
-48 -48 -142 -24 -161 43 -6 22 -6 22 114 22 l121 0 0 46 c0 40 -5 51 -39 85
-21 22 -48 39 -59 39 -11 0 -26 2 -34 4 -7 2 -26 1 -43 -3z m100 -66 c14 -13
25 -33 25 -45 0 -19 -6 -20 -96 -20 -94 0 -95 0 -89 23 19 65 113 90 160 42z"/>
<path d="M2630 2460 l0 -150 25 0 25 0 0 150 0 150 -25 0 -25 0 0 -150z"/>
<path d="M1428 2531 c-121 -39 -211 -118 -262 -225 -34 -72 -45 -185 -26 -267
25 -105 17 -107 166 42 105 105 134 139 134 161 0 24 7 29 78 52 42 14 80 26
85 26 4 0 7 -135 7 -300 0 -260 2 -299 15 -294 12 5 15 47 17 265 l3 259 48
-65 c26 -35 74 -84 105 -108 57 -43 125 -87 135 -87 13 0 29 109 24 169 -18
219 -179 377 -397 387 -55 3 -90 -1 -132 -15z"/>
<path d="M720 2282 c0 -158 0 -161 26 -192 44 -52 71 -60 201 -60 l117 0 -37
-38 c-20 -21 -37 -43 -37 -50 0 -25 26 -10 82 45 l58 57 -57 58 c-32 32 -63
58 -70 58 -22 0 -14 -25 17 -55 17 -16 30 -32 30 -37 0 -11 -168 -10 -211 2
-19 6 -46 22 -60 36 -23 24 -24 34 -29 176 -4 109 -9 153 -17 156 -10 3 -13
-33 -13 -156z"/>
<path d="M1356 2060 c-153 -152 -160 -160 -143 -177 16 -17 22 -13 122 87 58
58 105 112 105 120 0 9 14 29 30 45 l30 29 0 -51 0 -51 -115 -113 c-64 -62
-114 -117 -112 -123 2 -5 11 -14 20 -20 14 -9 28 1 82 54 39 39 65 73 65 85 0
20 37 65 53 65 4 0 7 -21 7 -47 0 -46 -3 -50 -76 -124 l-76 -76 41 -17 c23 -9
44 -16 46 -16 3 0 5 22 5 48 0 38 5 53 23 70 13 12 26 22 30 22 4 0 7 -34 7
-75 l0 -75 30 0 30 0 0 234 c0 200 -2 237 -16 250 -8 9 -18 16 -22 16 -3 0
-78 -72 -166 -160z"/>
<path d="M3426 2164 c-32 -32 -8 -84 38 -84 25 0 56 28 56 52 0 21 -32 48 -58
48 -11 0 -28 -7 -36 -16z"/>
<path d="M2777 2143 c-4 -3 -7 -96 -7 -205 l0 -198 45 0 45 0 0 205 0 205 -38
0 c-21 0 -42 -3 -45 -7z"/>
<path d="M2214 2116 c-43 -19 -64 -53 -64 -101 0 -47 31 -83 88 -103 81 -29
92 -35 97 -54 14 -43 -53 -67 -77 -28 -18 28 -108 30 -108 1 0 -29 37 -68 76
-81 50 -17 138 -8 165 16 12 10 30 37 40 59 13 29 18 34 18 19 1 -28 35 -71
71 -89 39 -20 117 -19 160 3 40 19 80 88 80 136 0 16 -9 49 -21 72 -52 109
-230 110 -279 2 -11 -24 -20 -56 -20 -73 l-1 -30 -13 30 c-13 30 -38 46 -128
84 -39 16 -48 25 -48 45 0 16 7 27 20 31 21 7 60 -10 60 -25 0 -6 23 -10 50
-10 54 0 58 6 35 49 -28 54 -129 78 -201 47z m428 -163 c23 -21 24 -89 1 -115
-20 -22 -61 -23 -85 -1 -23 21 -24 89 -1 115 20 22 61 23 85 1z"/>
<path d="M3240 2085 c0 -24 -5 -35 -15 -35 -11 0 -15 -11 -15 -40 0 -27 4 -40
14 -40 10 0 15 -22 18 -83 3 -46 11 -93 17 -104 12 -24 60 -43 107 -43 33 0
34 1 34 39 0 36 -3 40 -27 43 -27 3 -28 5 -31 76 l-3 72 31 0 c28 0 30 2 30
40 0 38 -2 40 -30 40 -28 0 -30 3 -30 35 l0 35 -50 0 -50 0 0 -35z"/>
<path d="M1747 2064 c43 -52 156 -138 167 -127 12 13 5 22 -41 49 -27 15 -75
50 -108 78 l-60 51 42 -51z"/>
<path d="M2894 2035 c-11 -27 2 -208 17 -238 26 -57 122 -76 173 -36 l26 20 0
-20 c0 -18 6 -21 45 -21 l45 0 0 155 0 155 -45 0 -45 0 0 -87 c0 -50 -6 -98
-13 -112 -16 -31 -48 -42 -78 -27 -22 11 -24 18 -29 116 l-5 105 -43 3 c-32 2
-44 -1 -48 -13z"/>
<path d="M3420 1895 l0 -155 45 0 45 0 0 155 0 155 -45 0 -45 0 0 -155z"/>
<path d="M3620 2039 c-119 -47 -130 -229 -17 -282 113 -54 237 18 237 138 0
109 -116 185 -220 144z m103 -86 c33 -37 30 -101 -7 -125 -19 -13 -59 -9 -78
9 -25 23 -24 87 2 113 25 25 62 26 83 3z"/>
<path d="M3857 2043 c-4 -3 -7 -73 -7 -155 l0 -148 50 0 50 0 0 99 c0 113 10
134 64 129 43 -4 56 -35 56 -140 l0 -88 46 0 46 0 -4 118 c-4 130 -12 152 -67
178 -39 19 -94 13 -121 -11 -16 -15 -18 -14 -23 5 -4 16 -13 20 -44 20 -22 0
-43 -3 -46 -7z"/>
<path d="M4245 2041 c-36 -15 -59 -50 -59 -88 0 -44 24 -66 99 -88 61 -17 76
-32 51 -51 -20 -14 -45 -9 -63 13 -7 9 -26 13 -57 11 l-45 -3 15 -32 c20 -39
68 -63 129 -63 87 0 142 56 116 118 -14 34 -31 45 -104 66 -45 13 -58 21 -55
34 4 22 51 28 68 8 7 -10 28 -16 51 -16 49 0 52 23 9 65 -23 22 -41 29 -82 32
-29 1 -62 -1 -73 -6z"/>
</g>
</svg>
